# Rhino

v -3.7999999523162842 0 -8
v -3.7999999523162842 0.80000001192092896 -8
v -3.5999999046325684 0 -8
v -3.5999999046325684 0.80000001192092896 -8
v -3.5999999046325684 0.40000000596046448 -8
v -3.7999999523162842 0.40000000596046448 -8
v -3.5999999046325684 0 -8
v -3.5999999046325684 0.80000001192092896 -8
v -3.5999999046325684 0 -10
v -3.5999999046325684 0.80000001192092896 -10
v -3.5999999046325684 0.40000000596046448 -8
v -3.5999999046325684 0.40000000596046448 -10
v -3.5999999046325684 0.80000001192092896 -9
v -3.5999999046325684 0 -9
v -3.5999999046325684 0 -10
v -3.5999999046325684 0.80000001192092896 -10
v -3.7999999523162842 0 -10
v -3.7999999523162842 0.80000001192092896 -10
v -3.5999999046325684 0.40000000596046448 -10
v -3.7999999523162842 0.40000000596046448 -10
v -3.7999999523162842 0 -10
v -3.7999999523162842 0.80000001192092896 -10
v -3.7999999523162842 0 -9
v -3.7999999523162842 0.80000001192092896 -9
v -3.7999999523162842 0.40000000596046448 -10
v -3.7999999523162842 0 -9.5
v -3.7999999523162842 0.80000001192092896 -9.5
v -3.7999999523162842 0.40000000596046448 -9
v -4 0 -7
v -4 0.80000001192092896 -7
v -3.7999999523162842 0 -7
v -3.7999999523162842 0.80000001192092896 -7
v -3.7999999523162842 0.40000000596046448 -7
v -4 0.40000000596046448 -7
v -3.7999999523162842 0 -7
v -3.7999999523162842 0.80000001192092896 -7
v -3.7999999523162842 0 -8
v -3.7999999523162842 0.80000001192092896 -8
v -3.7999999523162842 0.40000000596046448 -8
v -3.7999999523162842 0.40000000596046448 -7
v -3.7999999523162842 0 -7.5
v -3.7999999523162842 0.80000001192092896 -7.5
v -3.7999999523162842 0 -9
v -3.7999999523162842 0.80000001192092896 -9
v -4 0 -9
v -4 0.80000001192092896 -9
v -4 0.40000000596046448 -9
v -3.7999999523162842 0.40000000596046448 -9
v -4 0 -9
v -4 0.80000001192092896 -9
v -4 0 -7
v -4 0.80000001192092896 -7
v -4 0.40000000596046448 -7
v -4 0.80000001192092896 -8
v -4 0.40000000596046448 -9
v -4 0 -8
v -4 0 -7
v -3.5999999046325684 0 -10
v -3.7999999523162842 0 -8
v -3.5999999046325684 0 -8
v -3.7999999523162842 0 -7
v -3.5999999046325684 0 -9
v -3.7999999523162842 0 -10
v -3.7999999523162842 0 -9.5
v -3.7999999523162842 0 -9
v -3.7999999523162842 0 -7.5
v -4 0 -9
v -4 0 -8
v -4 0.80000001192092896 -7
v -3.5999999046325684 0.80000001192092896 -10
v -3.7999999523162842 0.80000001192092896 -8
v -3.5999999046325684 0.80000001192092896 -8
v -3.7999999523162842 0.80000001192092896 -7
v -3.5999999046325684 0.80000001192092896 -9
v -3.7999999523162842 0.80000001192092896 -10
v -3.7999999523162842 0.80000001192092896 -9.5
v -3.7999999523162842 0.80000001192092896 -9
v -3.7999999523162842 0.80000001192092896 -7.5
v -4 0.80000001192092896 -9
v -4 0.80000001192092896 -8
vt 0.24853515625 0.46875
vt 0 0.46875
vt 0.24853515625 0.53125
vt 0 0.53125
vt 0.124267578125 0.53125
vt 0.124267578125 0.46875
vt 0.74853515625 0
vt 0.5 0
vt 0.74853515625 0.625
vt 0.5 0.625
vt 0.624267578125 0
vt 0.624267578125 0.625
vt 0.5 0.3125
vt 0.74853515625 0.3125
vt 0.24853515625 0.3125
vt 0 0.3125
vt 0.24853515625 0.375
vt 0 0.375
vt 0.124267578125 0.3125
vt 0.124267578125 0.375
vt 0.49853515625 0
vt 0.25 0
vt 0.49853515625 0.31103515625
vt 0.25 0.31103515625
vt 0.374267578125 0
vt 0.49853515625 0.155517578125
vt 0.25 0.155517578125
vt 0.374267578125 0.31103515625
vt 0.24853515625 0.78125
vt 0 0.78125
vt 0.24853515625 0.84375
vt 0 0.84375
vt 0.124267578125 0.84375
vt 0.124267578125 0.78125
vt 0.24853515625 0
vt 0 0
vt 0.24853515625 0.31103515625
vt 0 0.31103515625
vt 0.124267578125 0.31103515625
vt 0.124267578125 0
vt 0.24853515625 0.155517578125
vt 0 0.155517578125
vt 0.24853515625 0.625
vt 0 0.625
vt 0.24853515625 0.6875
vt 0 0.6875
vt 0.124267578125 0.6875
vt 0.124267578125 0.625
vt 0.49853515625 0.3125
vt 0.25 0.3125
vt 0.49853515625 0.93603515625
vt 0.25 0.93603515625
vt 0.374267578125 0.93603515625
vt 0.25 0.624267578125
vt 0.374267578125 0.3125
vt 0.49853515625 0.624267578125
vt 0.875 0
vt 0.99853515625 0.93603515625
vt 0.936767578125 0.31201171875
vt 0.99853515625 0.31201171875
vt 0.936767578125 0
vt 0.99853515625 0.6240234375
vt 0.936767578125 0.93603515625
vt 0.936767578125 0.780029296875
vt 0.936767578125 0.6240234375
vt 0.936767578125 0.156005859375
vt 0.875 0.6240234375
vt 0.875 0.31201171875
vt 0.75 0
vt 0.87353515625 0.93603515625
vt 0.811767578125 0.31201171875
vt 0.87353515625 0.31201171875
vt 0.811767578125 0
vt 0.87353515625 0.6240234375
vt 0.811767578125 0.93603515625
vt 0.811767578125 0.780029296875
vt 0.811767578125 0.6240234375
vt 0.811767578125 0.156005859375
vt 0.75 0.6240234375
vt 0.75 0.31201171875
vn 0 0 1
vn 0 0 1
vn 0 0 1
vn 0 0 1
vn 0 0 1
vn 0 0 1
vn 1 0 0
vn 1 0 0
vn 1 0 0
vn 1 0 0
vn 1 0 0
vn 1 0 0
vn 1 0 0
vn 1 0 0
vn 0 0 -1
vn 0 0 -1
vn 0 0 -1
vn 0 0 -1
vn 0 0 -1
vn 0 0 -1
vn -1 0 0
vn -1 0 0
vn -1 0 0
vn -1 0 0
vn -1 0 0
vn -1 0 0
vn -1 0 0
vn -1 0 0
vn 0 0 1
vn 0 0 1
vn 0 0 1
vn 0 0 1
vn 0 0 1
vn 0 0 1
vn 1 0 0
vn 1 0 0
vn 1 0 0
vn 1 0 0
vn 1 0 0
vn 1 0 0
vn 1 0 0
vn 1 0 0
vn 0 0 -1
vn 0 0 -1
vn 0 0 -1
vn 0 0 -1
vn 0 0 -1
vn 0 0 -1
vn -1 0 0
vn -1 0 0
vn -1 0 0
vn -1 0 0
vn -1 0 0
vn -1 0 0
vn -1 0 0
vn -1 0 0
vn 0 -1 0
vn 0 -1 0
vn 0 -1 0
vn 0 -1 0
vn 0 -1 0
vn 0 -1 0
vn 0 -1 0
vn 0 -1 0
vn 0 -1 0
vn 0 -1 0
vn 0 -1 0
vn 0 -1 0
vn 0 1 0
vn 0 1 0
vn 0 1 0
vn 0 1 0
vn 0 1 0
vn 0 1 0
vn 0 1 0
vn 0 1 0
vn 0 1 0
vn 0 1 0
vn 0 1 0
vn 0 1 0
f 6/6/6 1/1/1 3/3/3 5/5/5 4/4/4 2/2/2
f 11/11/11 7/7/7 14/14/14 9/9/9 12/12/12 10/10/10 13/13/13 8/8/8
f 19/19/19 15/15/15 17/17/17 20/20/20 18/18/18 16/16/16
f 25/25/25 21/21/21 26/26/26 23/23/23 28/28/28 24/24/24 27/27/27 22/22/22
f 34/34/34 29/29/29 31/31/31 33/33/33 32/32/32 30/30/30
f 40/40/40 35/35/35 41/41/41 37/37/37 39/39/39 38/38/38 42/42/42 36/36/36
f 48/48/48 43/43/43 45/45/45 47/47/47 46/46/46 44/44/44
f 55/55/55 49/49/49 56/56/56 51/51/51 53/53/53 52/52/52 54/54/54 50/50/50
f 66/66/66 61/61/61 57/57/57 68/68/68 67/67/67 65/65/65 64/64/64 63/63/63 58/58/58 62/62/62 60/60/60 59/59/59
f 69/69/69 73/73/73 78/78/78 71/71/71 72/72/72 74/74/74 70/70/70 75/75/75 76/76/76 77/77/77 79/79/79 80/80/80
